<svg width="20" height="16" viewBox="0 0 20 16" fill="none" xmlns="http://www.w3.org/2000/svg">
<path d="M18.5 0H1.5C1.10218 0 0.720645 0.158035 0.43934 0.43934C0.158035 0.720644 0 1.10218 0 1.5V14.5C0 14.8978 0.158035 15.2794 0.43934 15.5607C0.720645 15.842 1.10218 16 1.5 16H18.5C18.8978 16 19.2794 15.842 19.5607 15.5607C19.842 15.2794 20 14.8978 20 14.5V1.5C20 1.10218 19.842 0.720644 19.5607 0.43934C19.2794 0.158035 18.8978 0 18.5 0ZM19 1.5V7.5H10.5V1H18.5C18.6326 1 18.7598 1.05268 18.8536 1.14645C18.9473 1.24022 19 1.36739 19 1.5ZM18.5 15H1.5C1.36739 15 1.24022 14.9473 1.14645 14.8536C1.05268 14.7598 1 14.6326 1 14.5V1.5C1 1.36739 1.05268 1.24022 1.14645 1.14645C1.24022 1.05268 1.36739 1 1.5 1H5V3C5 3.13261 5.05268 3.25979 5.14645 3.35355C5.24022 3.44732 5.36739 3.5 5.5 3.5C5.63261 3.5 5.75979 3.44732 5.85355 3.35355C5.94732 3.25979 6 3.13261 6 3V1H9.5V8C9.5 8.13261 9.55268 8.25979 9.64645 8.35355C9.74022 8.44732 9.86739 8.5 10 8.5H19V11H6V5C6 4.86739 5.94732 4.74021 5.85355 4.64645C5.75979 4.55268 5.63261 4.5 5.5 4.5C5.36739 4.5 5.24022 4.55268 5.14645 4.64645C5.05268 4.74021 5 4.86739 5 5V11.5C5 11.6326 5.05268 11.7598 5.14645 11.8536C5.24022 11.9473 5.36739 12 5.5 12H19V14.5C19 14.6326 18.9473 14.7598 18.8536 14.8536C18.7598 14.9473 18.6326 15 18.5 15Z" fill="#FF3897"/>
</svg>
