<svg width="48" height="48" viewBox="0 0 48 48" fill="none" xmlns="http://www.w3.org/2000/svg">
<rect width="47.9975" height="47.9988" rx="23.9988" fill="#65ACF6"/>
<path d="M31.9908 21H22.9919C21.8875 21 20.9922 21.8953 20.9922 22.9997V31.9986C20.9922 33.103 21.8875 33.9983 22.9919 33.9983H31.9908C33.0952 33.9983 33.9905 33.103 33.9905 31.9986V22.9997C33.9905 21.8953 33.0952 21 31.9908 21Z" stroke="white" stroke-width="2" stroke-linecap="round" stroke-linejoin="round"/>
<path d="M16.9938 26.9983H15.9939C15.4635 26.9983 14.9549 26.7877 14.5799 26.4126C14.2048 26.0376 13.9941 25.529 13.9941 24.9986V15.9997C13.9941 15.4694 14.2048 14.9607 14.5799 14.5857C14.9549 14.2107 15.4635 14 15.9939 14H24.9927C25.5231 14 26.0317 14.2107 26.4068 14.5857C26.7818 14.9607 26.9925 15.4694 26.9925 15.9997V16.9996" stroke="white" stroke-width="2" stroke-linecap="round" stroke-linejoin="round"/>
</svg>
