<svg width="48" height="48" viewBox="0 0 48 48" fill="none" xmlns="http://www.w3.org/2000/svg">
<rect width="48" height="48" rx="24" fill="#FF6174"/>
<path d="M27 18L30 21M18 33L33 18L30 15L15 30L18 33ZM21 15C21 15.5304 21.2107 16.0391 21.5858 16.4142C21.9609 16.7893 22.4696 17 23 17C22.4696 17 21.9609 17.2107 21.5858 17.5858C21.2107 17.9609 21 18.4696 21 19C21 18.4696 20.7893 17.9609 20.4142 17.5858C20.0391 17.2107 19.5304 17 19 17C19.5304 17 20.0391 16.7893 20.4142 16.4142C20.7893 16.0391 21 15.5304 21 15ZM31 25C31 25.5304 31.2107 26.0391 31.5858 26.4142C31.9609 26.7893 32.4696 27 33 27C32.4696 27 31.9609 27.2107 31.5858 27.5858C31.2107 27.9609 31 28.4696 31 29C31 28.4696 30.7893 27.9609 30.4142 27.5858C30.0391 27.2107 29.5304 27 29 27C29.5304 27 30.0391 26.7893 30.4142 26.4142C30.7893 26.0391 31 25.5304 31 25Z" stroke="white" stroke-width="2" stroke-linecap="round" stroke-linejoin="round"/>
</svg>
