<svg width="24" height="25" viewBox="0 0 24 25" fill="none" xmlns="http://www.w3.org/2000/svg">
<path d="M20.0318 20.4939H3.9668C3.12172 20.4929 2.31155 20.1568 1.71399 19.5592C1.11643 18.9617 0.780289 18.1515 0.779297 17.3064V7.69141C0.780289 6.84633 1.11643 6.03616 1.71399 5.4386C2.31155 4.84104 3.12172 4.5049 3.9668 4.50391H20.0318C20.8769 4.5049 21.687 4.84104 22.2846 5.4386C22.8822 6.03616 23.2183 6.84633 23.2193 7.69141V17.3064C23.2183 18.1515 22.8822 18.9617 22.2846 19.5592C21.687 20.1568 20.8769 20.4929 20.0318 20.4939ZM3.9668 5.62891C3.41979 5.62891 2.89518 5.8462 2.50839 6.233C2.1216 6.61979 1.9043 7.1444 1.9043 7.69141V17.3064C1.9043 17.8534 2.1216 18.378 2.50839 18.7648C2.89518 19.1516 3.41979 19.3689 3.9668 19.3689H20.0318C20.5788 19.3689 21.1034 19.1516 21.4902 18.7648C21.877 18.378 22.0943 17.8534 22.0943 17.3064V7.69141C22.0943 7.1444 21.877 6.61979 21.4902 6.233C21.1034 5.8462 20.5788 5.62891 20.0318 5.62891H3.9668Z" fill="#666666"/>
<path d="M11.9994 14.7789C11.3055 14.7799 10.6302 14.5548 10.0757 14.1376L1.31944 7.51511C1.25757 7.47169 1.20509 7.41625 1.16513 7.35209C1.12517 7.28794 1.09854 7.21639 1.08685 7.14171C1.07516 7.06704 1.07863 6.99078 1.09707 6.91748C1.11551 6.84418 1.14853 6.77534 1.19416 6.71509C1.23979 6.65484 1.2971 6.6044 1.36266 6.56678C1.42822 6.52917 1.50068 6.50516 1.57573 6.49617C1.65078 6.48719 1.72687 6.49343 1.79945 6.51451C1.87204 6.53558 1.93963 6.57108 1.99819 6.61886L10.7544 13.2489C11.114 13.5173 11.5507 13.6623 11.9994 13.6623C12.4482 13.6623 12.8849 13.5173 13.2444 13.2489L22.0007 6.61886C22.0593 6.57108 22.1268 6.53558 22.1994 6.51451C22.272 6.49343 22.3481 6.48719 22.4231 6.49617C22.4982 6.50516 22.5707 6.52917 22.6362 6.56678C22.7018 6.6044 22.7591 6.65484 22.8047 6.71509C22.8504 6.77534 22.8834 6.84418 22.9018 6.91748C22.9202 6.99078 22.9237 7.06704 22.912 7.14171C22.9003 7.21639 22.8737 7.28794 22.8337 7.35209C22.7938 7.41625 22.7413 7.47169 22.6794 7.51511L13.9232 14.1376C13.3687 14.5548 12.6934 14.7799 11.9994 14.7789Z" fill="#666666"/>
<path d="M1.56333 18.9277C1.44924 18.9279 1.3378 18.8934 1.2438 18.8287C1.14979 18.7641 1.07766 18.6724 1.03698 18.5658C0.996297 18.4592 0.988986 18.3428 1.01602 18.232C1.04305 18.1211 1.10314 18.0211 1.18833 17.9452L8.08833 11.7915C8.19972 11.692 8.34605 11.6409 8.49515 11.6493C8.64424 11.6578 8.78387 11.7251 8.88333 11.8365C8.98278 11.9479 9.03392 12.0942 9.02548 12.2433C9.01704 12.3924 8.94972 12.532 8.83833 12.6315L1.93833 18.7852C1.83586 18.8785 1.70185 18.9294 1.56333 18.9277ZM22.4358 18.9277C22.2973 18.9294 22.1633 18.8785 22.0608 18.7852L15.1608 12.6315C15.0494 12.532 14.9821 12.3924 14.9737 12.2433C14.9652 12.0942 15.0164 11.9479 15.1158 11.8365C15.2153 11.7251 15.3549 11.6578 15.504 11.6493C15.6531 11.6409 15.7994 11.692 15.9108 11.7915L22.8071 17.9452C22.8923 18.0211 22.9524 18.1211 22.9794 18.232C23.0064 18.3428 22.9991 18.4592 22.9584 18.5658C22.9177 18.6724 22.8456 18.7641 22.7516 18.8287C22.6576 18.8934 22.5462 18.9279 22.4321 18.9277H22.4358Z" fill="#666666"/>
</svg>
