<svg width="24" height="24" viewBox="0 0 24 24" fill="none" xmlns="http://www.w3.org/2000/svg">
<g clip-path="url(#clip0_87_507)">
<path d="M14.1537 14.3536C14.1537 13.8213 13.8362 13.4741 13.3549 13.2032L12.7984 13.7597C13.1822 13.9393 13.4037 14.1231 13.4037 14.3536C13.4037 14.6024 13.4037 15.0187 12.0772 15.0187C11.9138 15.0185 11.7508 15.0012 11.591 14.9671L10.9874 15.5707C11.3356 15.7024 11.7049 15.7695 12.0772 15.7687C13.4769 15.7687 14.1537 15.3074 14.1537 14.3536ZM13.5501 5.78549C13.5512 5.59242 13.514 5.40106 13.4408 5.22239C13.3677 5.04373 13.2599 4.88129 13.1238 4.7444C12.9876 4.60752 12.8257 4.4989 12.6475 4.42478C12.4692 4.35066 12.278 4.3125 12.0849 4.3125C11.8919 4.3125 11.7007 4.35066 11.5224 4.42478C11.3442 4.4989 11.1823 4.60752 11.0461 4.7444C10.91 4.88129 10.8022 5.04373 10.729 5.22239C10.6559 5.40106 10.6187 5.59242 10.6198 5.78549V6.02924C8.54795 6.51235 7.78967 8.05605 7.78967 9.43115C7.7678 9.98066 7.88625 10.5267 8.13385 11.0177C8.38146 11.5088 8.75005 11.9287 9.20488 12.2378L9.74534 11.6974C9.36244 11.4594 9.04925 11.1245 8.83752 10.7265C8.62578 10.3285 8.52303 9.88165 8.53967 9.43115C8.53967 8.062 9.401 6.87756 11.3697 6.66215V5.78549C11.3687 5.69092 11.3865 5.59709 11.422 5.50943C11.4575 5.42177 11.51 5.34201 11.5765 5.27478C11.643 5.20755 11.7222 5.15418 11.8095 5.11775C11.8967 5.08133 11.9904 5.06257 12.0849 5.06257C12.1795 5.06257 12.2731 5.08133 12.3604 5.11775C12.4477 5.15418 12.5269 5.20755 12.5934 5.27478C12.6599 5.34201 12.7124 5.42177 12.7479 5.50943C12.7834 5.59709 12.8011 5.69092 12.8001 5.78549V6.67762C13.3327 6.73916 13.8528 6.88177 14.3422 7.10051L14.9013 6.54147C14.4751 6.31699 14.0206 6.15082 13.5501 6.04742L13.5501 5.78549Z" fill="#FF3897"/>
<path d="M10.62 18.2135C10.6189 18.4066 10.6561 18.598 10.7293 18.7766C10.8024 18.9553 10.9102 19.1177 11.0464 19.2546C11.1825 19.3915 11.3444 19.5001 11.5227 19.5742C11.7009 19.6484 11.8921 19.6865 12.0852 19.6865C12.2782 19.6865 12.4694 19.6484 12.6477 19.5742C12.8259 19.5001 12.9878 19.3915 13.124 19.2546C13.2601 19.1177 13.3679 18.9553 13.4411 18.7766C13.5142 18.598 13.5514 18.4066 13.5503 18.2135V17.9965C15.529 17.584 16.688 16.2582 16.688 14.3524C16.7087 13.7696 16.5806 13.1912 16.3159 12.6715C16.0511 12.1519 15.6584 11.7083 15.1748 11.3824L14.641 11.9162C15.0534 12.1711 15.3908 12.531 15.6187 12.959C15.8466 13.3871 15.9568 13.8679 15.938 14.3524C15.938 16.0446 14.8614 17.1522 12.8004 17.3521V18.2135C12.8014 18.3081 12.7836 18.4019 12.7481 18.4896C12.7126 18.5772 12.6601 18.657 12.5936 18.7242C12.5271 18.7915 12.4479 18.8448 12.3606 18.8813C12.2734 18.9177 12.1797 18.9364 12.0852 18.9364C11.9906 18.9364 11.897 18.9177 11.8097 18.8813C11.7224 18.8448 11.6432 18.7915 11.5767 18.7242C11.5102 18.657 11.4577 18.5772 11.4222 18.4896C11.3867 18.4019 11.369 18.3081 11.37 18.2135V17.3521C10.7915 17.2814 10.2298 17.1106 9.71003 16.8471L9.1543 17.4028C9.61404 17.6609 10.1073 17.854 10.62 17.9769L10.62 18.2135ZM10.3241 9.42999C10.3241 9.87515 10.5986 10.176 11.0255 10.4163L11.5834 9.8584C11.2849 9.72112 11.0741 9.57647 11.0741 9.42999C11.0741 8.99838 11.8421 8.96484 12.0774 8.96484C12.2012 8.96577 12.3247 8.97581 12.4469 8.99487L13.0722 8.36961C12.7503 8.268 12.4149 8.21582 12.0774 8.21484C10.8009 8.21484 10.3241 8.81467 10.3241 9.42999Z" fill="#FF3897"/>
<path d="M12 0C9.62663 0 7.30655 0.703788 5.33316 2.02236C3.35977 3.34094 1.8217 5.21509 0.913451 7.4078C0.00519937 9.60051 -0.232441 12.0133 0.230582 14.3411C0.693605 16.6689 1.83649 18.8071 3.51472 20.4853C5.19295 22.1635 7.33115 23.3064 9.65892 23.7694C11.9867 24.2324 14.3995 23.9948 16.5922 23.0866C18.7849 22.1783 20.6591 20.6402 21.9776 18.6668C23.2962 16.6935 24 14.3734 24 12C23.9964 8.81851 22.731 5.76835 20.4813 3.51869C18.2317 1.26903 15.1815 0.00359644 12 0ZM3.33191 19.171C1.54679 17.0133 0.630614 14.2674 0.76249 11.4701C0.894366 8.67275 2.06482 6.02519 4.04501 4.045C6.0252 2.06481 8.67275 0.894361 11.4701 0.762485C14.2674 0.630608 17.0133 1.54679 19.171 3.3319L3.33191 19.171ZM3.83204 19.7315L19.7315 3.83203C19.881 3.97353 20.0265 4.11901 20.168 4.26848L4.26848 20.168C4.11903 20.0265 3.97355 19.881 3.83204 19.7315ZM23.25 12C23.25 14.1348 22.6426 16.2256 21.4987 18.0281C20.3549 19.8306 18.7217 21.2704 16.79 22.1794C14.8584 23.0883 12.708 23.4289 10.59 23.1613C8.47201 22.8937 6.47388 22.0289 4.82901 20.6681L20.6681 4.82901C22.3403 6.84415 23.2539 9.38139 23.25 12Z" fill="#FF3897"/>
</g>
<defs>
<clipPath id="clip0_87_507">
<rect width="24" height="24" fill="white"/>
</clipPath>
</defs>
</svg>
