<svg width="231" height="36" viewBox="0 0 231 36" fill="none" xmlns="http://www.w3.org/2000/svg">
<path d="M12.0998 15.6V25.68H9.2998V15.6H12.0998Z" fill="url(#paint0_linear_133_16510)"/>
<path d="M30.7318 11.72L26.0118 20.82V25.68H23.2118V20.82L18.4718 11.72H21.6318L24.6318 18.1L27.6118 11.72H30.7318Z" fill="url(#paint1_linear_133_16510)"/>
<path d="M37.2667 25.86C36.2 25.86 35.24 25.6267 34.3867 25.16C33.5333 24.68 32.86 24.0067 32.3667 23.14C31.8867 22.2733 31.6467 21.2733 31.6467 20.14C31.6467 19.0067 31.8933 18.0067 32.3867 17.14C32.8933 16.2733 33.58 15.6067 34.4467 15.14C35.3133 14.66 36.28 14.42 37.3467 14.42C38.4133 14.42 39.38 14.66 40.2467 15.14C41.1133 15.6067 41.7934 16.2733 42.2867 17.14C42.7934 18.0067 43.0467 19.0067 43.0467 20.14C43.0467 21.2733 42.7867 22.2733 42.2667 23.14C41.76 24.0067 41.0667 24.68 40.1867 25.16C39.32 25.6267 38.3467 25.86 37.2667 25.86ZM37.2667 23.42C37.7733 23.42 38.2467 23.3 38.6867 23.06C39.14 22.8067 39.5 22.4333 39.7667 21.94C40.0333 21.4467 40.1667 20.8467 40.1667 20.14C40.1667 19.0867 39.8867 18.28 39.3267 17.72C38.78 17.1467 38.1067 16.86 37.3067 16.86C36.5067 16.86 35.8333 17.1467 35.2867 17.72C34.7533 18.28 34.4867 19.0867 34.4867 20.14C34.4867 21.1933 34.7467 22.0067 35.2667 22.58C35.8 23.14 36.4667 23.42 37.2667 23.42Z" fill="url(#paint2_linear_133_16510)"/>
<path d="M55.5606 14.6V25.68H52.7406V24.28C52.3806 24.76 51.9073 25.14 51.3206 25.42C50.7473 25.6867 50.1206 25.82 49.4406 25.82C48.5739 25.82 47.8073 25.64 47.1406 25.28C46.4739 24.9067 45.9473 24.3667 45.5606 23.66C45.1873 22.94 45.0006 22.0867 45.0006 21.1V14.6H47.8006V20.7C47.8006 21.58 48.0206 22.26 48.4606 22.74C48.9006 23.2067 49.5006 23.44 50.2606 23.44C51.0339 23.44 51.6406 23.2067 52.0806 22.74C52.5206 22.26 52.7406 21.58 52.7406 20.7V14.6H55.5606Z" fill="url(#paint3_linear_133_16510)"/>
<path d="M67.8232 11.72V13.98H64.1032V25.68H61.3032V13.98H57.5832V11.72H67.8232Z" fill="url(#paint4_linear_133_16510)"/>
<path d="M80.3262 14.6V25.68H77.5062V24.28C77.1462 24.76 76.6729 25.14 76.0862 25.42C75.5129 25.6867 74.8862 25.82 74.2062 25.82C73.3395 25.82 72.5729 25.64 71.9062 25.28C71.2395 24.9067 70.7129 24.3667 70.3262 23.66C69.9529 22.94 69.7662 22.0867 69.7662 21.1V14.6H72.5662V20.7C72.5662 21.58 72.7862 22.26 73.2262 22.74C73.6662 23.2067 74.2662 23.44 75.0262 23.44C75.7995 23.44 76.4062 23.2067 76.8462 22.74C77.2862 22.26 77.5062 21.58 77.5062 20.7V14.6H80.3262Z" fill="url(#paint5_linear_133_16510)"/>
<path d="M85.8889 16.22C86.2489 15.6867 86.7422 15.2533 87.3689 14.92C88.0089 14.5867 88.7355 14.42 89.5489 14.42C90.4955 14.42 91.3489 14.6533 92.1089 15.12C92.8822 15.5867 93.4889 16.2533 93.9289 17.12C94.3822 17.9733 94.6089 18.9667 94.6089 20.1C94.6089 21.2333 94.3822 22.24 93.9289 23.12C93.4889 23.9867 92.8822 24.66 92.1089 25.14C91.3489 25.62 90.4955 25.86 89.5489 25.86C88.7222 25.86 87.9955 25.7 87.3689 25.38C86.7555 25.0467 86.2622 24.62 85.8889 24.1V25.68H83.0889V10.88H85.8889V16.22ZM91.7489 20.1C91.7489 19.4333 91.6089 18.86 91.3289 18.38C91.0622 17.8867 90.7022 17.5133 90.2489 17.26C89.8089 17.0067 89.3289 16.88 88.8089 16.88C88.3022 16.88 87.8222 17.0133 87.3689 17.28C86.9289 17.5333 86.5689 17.9067 86.2889 18.4C86.0222 18.8933 85.8889 19.4733 85.8889 20.14C85.8889 20.8067 86.0222 21.3867 86.2889 21.88C86.5689 22.3733 86.9289 22.7533 87.3689 23.02C87.8222 23.2733 88.3022 23.4 88.8089 23.4C89.3289 23.4 89.8089 23.2667 90.2489 23C90.7022 22.7333 91.0622 22.3533 91.3289 21.86C91.6089 21.3667 91.7489 20.78 91.7489 20.1Z" fill="url(#paint6_linear_133_16510)"/>
<path d="M106.944 19.9C106.944 20.3 106.917 20.66 106.864 20.98H98.7635C98.8302 21.78 99.1102 22.4067 99.6036 22.86C100.097 23.3133 100.704 23.54 101.424 23.54C102.464 23.54 103.204 23.0933 103.644 22.2H106.664C106.344 23.2667 105.73 24.1467 104.824 24.84C103.917 25.52 102.804 25.86 101.484 25.86C100.417 25.86 99.4569 25.6267 98.6036 25.16C97.7636 24.68 97.1036 24.0067 96.6236 23.14C96.1569 22.2733 95.9236 21.2733 95.9236 20.14C95.9236 18.9933 96.1569 17.9867 96.6236 17.12C97.0902 16.2533 97.7436 15.5867 98.5835 15.12C99.4235 14.6533 100.39 14.42 101.484 14.42C102.537 14.42 103.477 14.6467 104.304 15.1C105.144 15.5533 105.79 16.2 106.244 17.04C106.71 17.8667 106.944 18.82 106.944 19.9ZM104.044 19.1C104.03 18.38 103.77 17.8067 103.264 17.38C102.757 16.94 102.137 16.72 101.404 16.72C100.71 16.72 100.124 16.9333 99.6436 17.36C99.1769 17.7733 98.8902 18.3533 98.7836 19.1H104.044Z" fill="url(#paint7_linear_133_16510)"/>
<path d="M123.253 11.72V13.98H119.533V25.68H116.733V13.98H113.013V11.72H123.253Z" fill="url(#paint8_linear_133_16510)"/>
<path d="M131.536 14.44C132.376 14.44 133.123 14.6267 133.776 15C134.429 15.36 134.936 15.9 135.296 16.62C135.669 17.3267 135.856 18.18 135.856 19.18V25.68H133.056V19.56C133.056 18.68 132.836 18.0067 132.396 17.54C131.956 17.06 131.356 16.82 130.596 16.82C129.823 16.82 129.209 17.06 128.756 17.54C128.316 18.0067 128.096 18.68 128.096 19.56V25.68H125.296V10.88H128.096V15.98C128.456 15.5 128.936 15.1267 129.536 14.86C130.136 14.58 130.803 14.44 131.536 14.44Z" fill="url(#paint9_linear_133_16510)"/>
<path d="M148.979 14.6V25.68H146.159V24.28C145.799 24.76 145.325 25.14 144.739 25.42C144.165 25.6867 143.539 25.82 142.859 25.82C141.992 25.82 141.225 25.64 140.559 25.28C139.892 24.9067 139.365 24.3667 138.979 23.66C138.605 22.94 138.419 22.0867 138.419 21.1V14.6H141.219V20.7C141.219 21.58 141.439 22.26 141.879 22.74C142.319 23.2067 142.919 23.44 143.679 23.44C144.452 23.44 145.059 23.2067 145.499 22.74C145.939 22.26 146.159 21.58 146.159 20.7V14.6H148.979Z" fill="url(#paint10_linear_133_16510)"/>
<path d="M165.501 14.44C166.861 14.44 167.955 14.86 168.781 15.7C169.621 16.5267 170.041 17.6867 170.041 19.18V25.68H167.241V19.56C167.241 18.6933 167.021 18.0333 166.581 17.58C166.141 17.1133 165.541 16.88 164.781 16.88C164.021 16.88 163.415 17.1133 162.961 17.58C162.521 18.0333 162.301 18.6933 162.301 19.56V25.68H159.501V19.56C159.501 18.6933 159.281 18.0333 158.841 17.58C158.401 17.1133 157.801 16.88 157.041 16.88C156.268 16.88 155.655 17.1133 155.201 17.58C154.761 18.0333 154.541 18.6933 154.541 19.56V25.68H151.741V14.6H154.541V15.94C154.901 15.4733 155.361 15.1067 155.921 14.84C156.495 14.5733 157.121 14.44 157.801 14.44C158.668 14.44 159.441 14.6267 160.121 15C160.801 15.36 161.328 15.88 161.701 16.56C162.061 15.92 162.581 15.4067 163.261 15.02C163.955 14.6333 164.701 14.44 165.501 14.44Z" fill="url(#paint11_linear_133_16510)"/>
<path d="M175.498 16.22C175.858 15.6867 176.352 15.2533 176.978 14.92C177.618 14.5867 178.345 14.42 179.158 14.42C180.105 14.42 180.958 14.6533 181.718 15.12C182.492 15.5867 183.098 16.2533 183.538 17.12C183.992 17.9733 184.218 18.9667 184.218 20.1C184.218 21.2333 183.992 22.24 183.538 23.12C183.098 23.9867 182.492 24.66 181.718 25.14C180.958 25.62 180.105 25.86 179.158 25.86C178.332 25.86 177.605 25.7 176.978 25.38C176.365 25.0467 175.872 24.62 175.498 24.1V25.68H172.698V10.88H175.498V16.22ZM181.358 20.1C181.358 19.4333 181.218 18.86 180.938 18.38C180.672 17.8867 180.312 17.5133 179.858 17.26C179.418 17.0067 178.938 16.88 178.418 16.88C177.912 16.88 177.432 17.0133 176.978 17.28C176.538 17.5333 176.178 17.9067 175.898 18.4C175.632 18.8933 175.498 19.4733 175.498 20.14C175.498 20.8067 175.632 21.3867 175.898 21.88C176.178 22.3733 176.538 22.7533 176.978 23.02C177.432 23.2733 177.912 23.4 178.418 23.4C178.938 23.4 179.418 23.2667 179.858 23C180.312 22.7333 180.672 22.3533 180.938 21.86C181.218 21.3667 181.358 20.78 181.358 20.1Z" fill="url(#paint12_linear_133_16510)"/>
<path d="M192.393 14.44C193.713 14.44 194.78 14.86 195.593 15.7C196.406 16.5267 196.813 17.6867 196.813 19.18V25.68H194.013V19.56C194.013 18.68 193.793 18.0067 193.353 17.54C192.913 17.06 192.313 16.82 191.553 16.82C190.78 16.82 190.166 17.06 189.713 17.54C189.273 18.0067 189.053 18.68 189.053 19.56V25.68H186.253V14.6H189.053V15.98C189.426 15.5 189.9 15.1267 190.473 14.86C191.06 14.58 191.7 14.44 192.393 14.44Z" fill="url(#paint13_linear_133_16510)"/>
<path d="M198.756 20.1C198.756 18.98 198.976 17.9867 199.416 17.12C199.869 16.2533 200.476 15.5867 201.236 15.12C202.009 14.6533 202.869 14.42 203.816 14.42C204.642 14.42 205.362 14.5867 205.976 14.92C206.602 15.2533 207.102 15.6733 207.476 16.18V14.6H210.296V25.68H207.476V24.06C207.116 24.58 206.616 25.0133 205.976 25.36C205.349 25.6933 204.622 25.86 203.796 25.86C202.862 25.86 202.009 25.62 201.236 25.14C200.476 24.66 199.869 23.9867 199.416 23.12C198.976 22.24 198.756 21.2333 198.756 20.1ZM207.476 20.14C207.476 19.46 207.342 18.88 207.076 18.4C206.809 17.9067 206.449 17.5333 205.996 17.28C205.542 17.0133 205.056 16.88 204.536 16.88C204.016 16.88 203.536 17.0067 203.096 17.26C202.656 17.5133 202.296 17.8867 202.016 18.38C201.749 18.86 201.616 19.4333 201.616 20.1C201.616 20.7667 201.749 21.3533 202.016 21.86C202.296 22.3533 202.656 22.7333 203.096 23C203.549 23.2667 204.029 23.4 204.536 23.4C205.056 23.4 205.542 23.2733 205.996 23.02C206.449 22.7533 206.809 22.38 207.076 21.9C207.342 21.4067 207.476 20.82 207.476 20.14Z" fill="url(#paint14_linear_133_16510)"/>
<path d="M214.45 13.28C213.957 13.28 213.544 13.1267 213.21 12.82C212.89 12.5 212.73 12.1067 212.73 11.64C212.73 11.1733 212.89 10.7867 213.21 10.48C213.544 10.16 213.957 10 214.45 10C214.944 10 215.35 10.16 215.67 10.48C216.004 10.7867 216.17 11.1733 216.17 11.64C216.17 12.1067 216.004 12.5 215.67 12.82C215.35 13.1267 214.944 13.28 214.45 13.28ZM215.83 14.6V25.68H213.03V14.6H215.83Z" fill="url(#paint15_linear_133_16510)"/>
<path d="M221.397 10.88V25.68H218.597V10.88H221.397Z" fill="url(#paint16_linear_133_16510)"/>
<g clip-path="url(#clip0_133_16510)">
<mask id="mask0_133_16510" style="mask-type:luminance" maskUnits="userSpaceOnUse" x="7" y="9" width="7" height="6">
<path d="M7.69922 9H13.6992V15H7.69922V9Z" fill="white"/>
</mask>
<g mask="url(#mask0_133_16510)">
<path d="M13.5234 11.0268C13.5234 10.1663 12.8258 9.4687 11.9654 9.4687C11.4431 9.4687 10.9822 9.72654 10.6994 10.1206C10.4168 9.72654 9.95575 9.4687 9.43359 9.4687C8.57307 9.4687 7.87549 10.1663 7.87549 11.0268C7.87549 11.1487 7.89096 11.2668 7.91749 11.3806C8.13396 12.7246 9.62828 14.1429 10.6994 14.5322C11.7704 14.1429 13.2651 12.7246 13.4811 11.3806C13.5079 11.2668 13.5234 11.1487 13.5234 11.0268Z" fill="#BE1931"/>
</g>
</g>
<defs>
<linearGradient id="paint0_linear_133_16510" x1="9.2998" y1="19.7143" x2="210.936" y2="67.7014" gradientUnits="userSpaceOnUse">
<stop stop-color="#FF8C4C"/>
<stop offset="0.305764" stop-color="#FF3897"/>
<stop offset="0.63694" stop-color="#55B7FF"/>
<stop offset="1" stop-color="#8F00FF"/>
</linearGradient>
<linearGradient id="paint1_linear_133_16510" x1="9.2998" y1="19.7143" x2="210.936" y2="67.7014" gradientUnits="userSpaceOnUse">
<stop stop-color="#FF8C4C"/>
<stop offset="0.305764" stop-color="#FF3897"/>
<stop offset="0.63694" stop-color="#55B7FF"/>
<stop offset="1" stop-color="#8F00FF"/>
</linearGradient>
<linearGradient id="paint2_linear_133_16510" x1="9.2998" y1="19.7143" x2="210.936" y2="67.7014" gradientUnits="userSpaceOnUse">
<stop stop-color="#FF8C4C"/>
<stop offset="0.305764" stop-color="#FF3897"/>
<stop offset="0.63694" stop-color="#55B7FF"/>
<stop offset="1" stop-color="#8F00FF"/>
</linearGradient>
<linearGradient id="paint3_linear_133_16510" x1="9.2998" y1="19.7143" x2="210.936" y2="67.7014" gradientUnits="userSpaceOnUse">
<stop stop-color="#FF8C4C"/>
<stop offset="0.305764" stop-color="#FF3897"/>
<stop offset="0.63694" stop-color="#55B7FF"/>
<stop offset="1" stop-color="#8F00FF"/>
</linearGradient>
<linearGradient id="paint4_linear_133_16510" x1="9.2998" y1="19.7143" x2="210.936" y2="67.7014" gradientUnits="userSpaceOnUse">
<stop stop-color="#FF8C4C"/>
<stop offset="0.305764" stop-color="#FF3897"/>
<stop offset="0.63694" stop-color="#55B7FF"/>
<stop offset="1" stop-color="#8F00FF"/>
</linearGradient>
<linearGradient id="paint5_linear_133_16510" x1="9.2998" y1="19.7143" x2="210.936" y2="67.7014" gradientUnits="userSpaceOnUse">
<stop stop-color="#FF8C4C"/>
<stop offset="0.305764" stop-color="#FF3897"/>
<stop offset="0.63694" stop-color="#55B7FF"/>
<stop offset="1" stop-color="#8F00FF"/>
</linearGradient>
<linearGradient id="paint6_linear_133_16510" x1="9.2998" y1="19.7143" x2="210.936" y2="67.7014" gradientUnits="userSpaceOnUse">
<stop stop-color="#FF8C4C"/>
<stop offset="0.305764" stop-color="#FF3897"/>
<stop offset="0.63694" stop-color="#55B7FF"/>
<stop offset="1" stop-color="#8F00FF"/>
</linearGradient>
<linearGradient id="paint7_linear_133_16510" x1="9.2998" y1="19.7143" x2="210.936" y2="67.7014" gradientUnits="userSpaceOnUse">
<stop stop-color="#FF8C4C"/>
<stop offset="0.305764" stop-color="#FF3897"/>
<stop offset="0.63694" stop-color="#55B7FF"/>
<stop offset="1" stop-color="#8F00FF"/>
</linearGradient>
<linearGradient id="paint8_linear_133_16510" x1="9.2998" y1="19.7143" x2="210.936" y2="67.7014" gradientUnits="userSpaceOnUse">
<stop stop-color="#FF8C4C"/>
<stop offset="0.305764" stop-color="#FF3897"/>
<stop offset="0.63694" stop-color="#55B7FF"/>
<stop offset="1" stop-color="#8F00FF"/>
</linearGradient>
<linearGradient id="paint9_linear_133_16510" x1="9.2998" y1="19.7143" x2="210.936" y2="67.7014" gradientUnits="userSpaceOnUse">
<stop stop-color="#FF8C4C"/>
<stop offset="0.305764" stop-color="#FF3897"/>
<stop offset="0.63694" stop-color="#55B7FF"/>
<stop offset="1" stop-color="#8F00FF"/>
</linearGradient>
<linearGradient id="paint10_linear_133_16510" x1="9.2998" y1="19.7143" x2="210.936" y2="67.7014" gradientUnits="userSpaceOnUse">
<stop stop-color="#FF8C4C"/>
<stop offset="0.305764" stop-color="#FF3897"/>
<stop offset="0.63694" stop-color="#55B7FF"/>
<stop offset="1" stop-color="#8F00FF"/>
</linearGradient>
<linearGradient id="paint11_linear_133_16510" x1="9.2998" y1="19.7143" x2="210.936" y2="67.7014" gradientUnits="userSpaceOnUse">
<stop stop-color="#FF8C4C"/>
<stop offset="0.305764" stop-color="#FF3897"/>
<stop offset="0.63694" stop-color="#55B7FF"/>
<stop offset="1" stop-color="#8F00FF"/>
</linearGradient>
<linearGradient id="paint12_linear_133_16510" x1="9.2998" y1="19.7143" x2="210.936" y2="67.7014" gradientUnits="userSpaceOnUse">
<stop stop-color="#FF8C4C"/>
<stop offset="0.305764" stop-color="#FF3897"/>
<stop offset="0.63694" stop-color="#55B7FF"/>
<stop offset="1" stop-color="#8F00FF"/>
</linearGradient>
<linearGradient id="paint13_linear_133_16510" x1="9.2998" y1="19.7143" x2="210.936" y2="67.7014" gradientUnits="userSpaceOnUse">
<stop stop-color="#FF8C4C"/>
<stop offset="0.305764" stop-color="#FF3897"/>
<stop offset="0.63694" stop-color="#55B7FF"/>
<stop offset="1" stop-color="#8F00FF"/>
</linearGradient>
<linearGradient id="paint14_linear_133_16510" x1="9.2998" y1="19.7143" x2="210.936" y2="67.7014" gradientUnits="userSpaceOnUse">
<stop stop-color="#FF8C4C"/>
<stop offset="0.305764" stop-color="#FF3897"/>
<stop offset="0.63694" stop-color="#55B7FF"/>
<stop offset="1" stop-color="#8F00FF"/>
</linearGradient>
<linearGradient id="paint15_linear_133_16510" x1="9.2998" y1="19.7143" x2="210.936" y2="67.7014" gradientUnits="userSpaceOnUse">
<stop stop-color="#FF8C4C"/>
<stop offset="0.305764" stop-color="#FF3897"/>
<stop offset="0.63694" stop-color="#55B7FF"/>
<stop offset="1" stop-color="#8F00FF"/>
</linearGradient>
<linearGradient id="paint16_linear_133_16510" x1="9.2998" y1="19.7143" x2="210.936" y2="67.7014" gradientUnits="userSpaceOnUse">
<stop stop-color="#FF8C4C"/>
<stop offset="0.305764" stop-color="#FF3897"/>
<stop offset="0.63694" stop-color="#55B7FF"/>
<stop offset="1" stop-color="#8F00FF"/>
</linearGradient>
<clipPath id="clip0_133_16510">
<rect width="6" height="6" fill="white" transform="translate(7.69922 9)"/>
</clipPath>
</defs>
</svg>
