<svg width="203" height="32" viewBox="0 0 203 32" fill="none" xmlns="http://www.w3.org/2000/svg">
<path d="M2.88 22H1.344V10.432H2.88L6.864 20.16L10.848 10.432H12.416V22H10.88V17.424C10.88 16.88 10.88 16.416 10.88 16.032C10.88 15.648 10.8853 15.3173 10.896 15.04C10.9067 14.7627 10.9173 14.5173 10.928 14.304C10.9387 14.08 10.9547 13.8667 10.976 13.664L7.6 22H6.128L2.768 13.696C2.81067 13.9733 2.83733 14.4 2.848 14.976C2.86933 15.552 2.88 16.2453 2.88 17.056V22ZM17.1416 22.192C16.3096 22.192 15.6536 21.9733 15.1736 21.536C14.7043 21.0987 14.4696 20.528 14.4696 19.824C14.4696 19.1093 14.7256 18.5387 15.2376 18.112C15.7496 17.6747 16.4643 17.4187 17.3816 17.344L19.8456 17.152V16.928C19.8456 16.4907 19.7656 16.144 19.6056 15.888C19.4456 15.6213 19.227 15.4347 18.9496 15.328C18.6723 15.2107 18.3576 15.152 18.0056 15.152C17.3763 15.152 16.8856 15.2853 16.5336 15.552C16.1923 15.808 16.0216 16.176 16.0216 16.656H14.7096C14.7096 16.112 14.8483 15.6373 15.1256 15.232C15.403 14.8267 15.7923 14.512 16.2936 14.288C16.8056 14.064 17.3976 13.952 18.0696 13.952C18.7203 13.952 19.2856 14.0693 19.7656 14.304C20.2563 14.528 20.635 14.8747 20.9016 15.344C21.179 15.8027 21.3176 16.384 21.3176 17.088V22H20.0376L19.8776 20.736C19.675 21.184 19.323 21.5413 18.8216 21.808C18.331 22.064 17.771 22.192 17.1416 22.192ZM17.5736 21.024C18.2883 21.024 18.8483 20.8107 19.2536 20.384C19.659 19.9467 19.8616 19.36 19.8616 18.624V18.208L17.8616 18.368C17.2003 18.432 16.7203 18.5867 16.4216 18.832C16.1336 19.0773 15.9896 19.392 15.9896 19.776C15.9896 20.192 16.1283 20.5067 16.4056 20.72C16.6936 20.9227 17.083 21.024 17.5736 21.024ZM26.5365 22.192C25.7792 22.192 25.1285 22.0213 24.5845 21.68C24.0405 21.328 23.6192 20.8427 23.3205 20.224C23.0325 19.6053 22.8885 18.9013 22.8885 18.112C22.8885 17.312 23.0378 16.6027 23.3365 15.984C23.6352 15.3547 24.0618 14.8587 24.6165 14.496C25.1712 14.1333 25.8325 13.952 26.6005 13.952C27.2085 13.952 27.7472 14.08 28.2165 14.336C28.6965 14.5813 29.0698 14.9493 29.3365 15.44V10.224H30.8245V22H29.4805L29.3525 20.576C29.0965 21.0987 28.7178 21.4987 28.2165 21.776C27.7258 22.0533 27.1658 22.192 26.5365 22.192ZM26.8405 20.832C27.3525 20.832 27.7898 20.7147 28.1525 20.48C28.5258 20.2453 28.8138 19.92 29.0165 19.504C29.2192 19.088 29.3205 18.608 29.3205 18.064C29.3205 17.52 29.2192 17.0453 29.0165 16.64C28.8138 16.224 28.5258 15.8987 28.1525 15.664C27.7898 15.4293 27.3525 15.312 26.8405 15.312C26.3285 15.312 25.8912 15.4347 25.5285 15.68C25.1658 15.9147 24.8885 16.24 24.6965 16.656C24.5045 17.0613 24.4085 17.5307 24.4085 18.064C24.4085 18.608 24.5045 19.088 24.6965 19.504C24.8885 19.92 25.1658 20.2453 25.5285 20.48C25.8912 20.7147 26.3285 20.832 26.8405 20.832ZM36.3703 22.192C35.6129 22.192 34.9409 22.0213 34.3543 21.68C33.7676 21.328 33.3089 20.848 32.9783 20.24C32.6476 19.6213 32.4823 18.9067 32.4823 18.096C32.4823 17.2747 32.6423 16.5547 32.9622 15.936C33.2929 15.3173 33.7409 14.832 34.3063 14.48C34.8823 14.128 35.5489 13.952 36.3063 13.952C37.0529 13.952 37.6983 14.112 38.2423 14.432C38.7969 14.752 39.2236 15.2 39.5223 15.776C39.8316 16.352 39.9862 17.0293 39.9862 17.808V18.368L33.2823 18.384L33.3143 17.376H38.4823C38.4823 16.7253 38.2849 16.2027 37.8903 15.808C37.4956 15.4133 36.9676 15.216 36.3063 15.216C35.8049 15.216 35.3729 15.328 35.0103 15.552C34.6583 15.7653 34.3863 16.0853 34.1943 16.512C34.0129 16.928 33.9223 17.4293 33.9223 18.016C33.9223 18.9547 34.1356 19.68 34.5623 20.192C34.9889 20.6933 35.6023 20.944 36.4023 20.944C36.9889 20.944 37.4689 20.8267 37.8423 20.592C38.2156 20.3573 38.4663 20.016 38.5943 19.568H40.0023C39.8103 20.4 39.3996 21.0453 38.7703 21.504C38.1409 21.9627 37.3409 22.192 36.3703 22.192ZM47.7211 22L45.1611 14.176H46.7131L48.0091 18.24C48.1051 18.528 48.1905 18.8267 48.2651 19.136C48.3398 19.4347 48.4145 19.7547 48.4891 20.096C48.5318 19.8613 48.5798 19.6373 48.6331 19.424C48.6971 19.2 48.7611 18.992 48.8251 18.8C48.8891 18.5973 48.9478 18.4107 49.0011 18.24L50.3131 14.176H51.8491L53.1451 18.24C53.1878 18.336 53.2251 18.464 53.2571 18.624C53.2998 18.7733 53.3478 18.9333 53.4011 19.104C53.4545 19.2747 53.5025 19.4453 53.5451 19.616C53.5878 19.7867 53.6251 19.9467 53.6571 20.096C53.6998 19.8827 53.7425 19.68 53.7851 19.488C53.8385 19.2853 53.8918 19.088 53.9451 18.896C54.0091 18.6933 54.0785 18.4747 54.1531 18.24L55.4651 14.176H57.0331L54.3611 22H52.9371L51.5771 17.808C51.4491 17.4133 51.3425 17.0667 51.2571 16.768C51.1825 16.4587 51.1238 16.1973 51.0811 15.984C51.0385 16.176 50.9745 16.416 50.8891 16.704C50.8145 16.9813 50.7078 17.3547 50.5691 17.824L49.2091 22H47.7211ZM58.3224 22V14.176H59.8264V22H58.3224ZM59.0584 12.32C58.7917 12.32 58.557 12.224 58.3544 12.032C58.1624 11.8293 58.0664 11.5947 58.0664 11.328C58.0664 11.0507 58.1624 10.816 58.3544 10.624C58.557 10.432 58.7917 10.336 59.0584 10.336C59.3357 10.336 59.5704 10.432 59.7624 10.624C59.9544 10.816 60.0504 11.0507 60.0504 11.328C60.0504 11.5947 59.9544 11.8293 59.7624 12.032C59.5704 12.224 59.3357 12.32 59.0584 12.32ZM61.1779 14.176H65.7539V15.44H61.1779V14.176ZM64.2179 22H62.7139V11.728H64.2179V22ZM68.6076 21.984H67.1036V10.224H68.6076V15.376C68.853 14.9493 69.205 14.608 69.6636 14.352C70.1223 14.0853 70.6556 13.952 71.2636 13.952C72.2556 13.952 72.997 14.2453 73.4876 14.832C73.9783 15.4187 74.2236 16.2133 74.2236 17.216V22H72.7196V17.552C72.7196 17.0187 72.6396 16.592 72.4796 16.272C72.3303 15.9413 72.1116 15.7013 71.8236 15.552C71.5463 15.4027 71.221 15.328 70.8476 15.328C70.3676 15.328 69.957 15.4347 69.6156 15.648C69.285 15.8613 69.0343 16.1493 68.8636 16.512C68.693 16.8747 68.6076 17.28 68.6076 17.728V21.984ZM82.2178 22H80.7138V10.224H82.2178V22ZM83.9198 18.08C83.9198 17.28 84.0958 16.5707 84.4478 15.952C84.7998 15.3333 85.2798 14.848 85.8878 14.496C86.5064 14.144 87.2104 13.968 87.9998 13.968C88.7891 13.968 89.4878 14.144 90.0958 14.496C90.7038 14.848 91.1838 15.3333 91.5358 15.952C91.8878 16.5707 92.0638 17.28 92.0638 18.08C92.0638 18.88 91.8878 19.5893 91.5358 20.208C91.1838 20.8267 90.7038 21.312 90.0958 21.664C89.4878 22.016 88.7891 22.192 87.9998 22.192C87.2104 22.192 86.5064 22.016 85.8878 21.664C85.2798 21.312 84.7998 20.8267 84.4478 20.208C84.0958 19.5893 83.9198 18.88 83.9198 18.08ZM85.4398 18.08C85.4398 18.624 85.5464 19.104 85.7598 19.52C85.9838 19.936 86.2878 20.2613 86.6718 20.496C87.0558 20.7307 87.4984 20.848 87.9998 20.848C88.5011 20.848 88.9438 20.7307 89.3278 20.496C89.7118 20.2613 90.0104 19.936 90.2238 19.52C90.4478 19.104 90.5598 18.624 90.5598 18.08C90.5598 17.5253 90.4478 17.0453 90.2238 16.64C90.0104 16.224 89.7118 15.8987 89.3278 15.664C88.9438 15.4293 88.5011 15.312 87.9998 15.312C87.4984 15.312 87.0558 15.4293 86.6718 15.664C86.2878 15.8987 85.9838 16.224 85.7598 16.64C85.5464 17.0453 85.4398 17.5253 85.4398 18.08ZM95.5613 22L92.4093 14.176H94.0093L95.7213 18.544C95.8599 18.9067 95.9826 19.2533 96.0893 19.584C96.1959 19.904 96.2813 20.1813 96.3453 20.416C96.4199 20.1493 96.5106 19.856 96.6173 19.536C96.7346 19.216 96.8626 18.8853 97.0013 18.544L98.7453 14.176H100.313L97.0493 22H95.5613ZM104.527 22.192C103.769 22.192 103.097 22.0213 102.511 21.68C101.924 21.328 101.465 20.848 101.135 20.24C100.804 19.6213 100.639 18.9067 100.639 18.096C100.639 17.2747 100.799 16.5547 101.118 15.936C101.449 15.3173 101.897 14.832 102.463 14.48C103.039 14.128 103.705 13.952 104.463 13.952C105.209 13.952 105.855 14.112 106.399 14.432C106.953 14.752 107.38 15.2 107.679 15.776C107.988 16.352 108.142 17.0293 108.142 17.808V18.368L101.439 18.384L101.471 17.376H106.639C106.639 16.7253 106.441 16.2027 106.047 15.808C105.652 15.4133 105.124 15.216 104.463 15.216C103.961 15.216 103.529 15.328 103.167 15.552C102.815 15.7653 102.543 16.0853 102.351 16.512C102.169 16.928 102.079 17.4293 102.079 18.016C102.079 18.9547 102.292 19.68 102.719 20.192C103.145 20.6933 103.759 20.944 104.559 20.944C105.145 20.944 105.625 20.8267 105.999 20.592C106.372 20.3573 106.623 20.016 106.751 19.568H108.159C107.967 20.4 107.556 21.0453 106.927 21.504C106.297 21.9627 105.497 22.192 104.527 22.192ZM114.197 22V14.176H115.701V22H114.197ZM114.933 12.32C114.667 12.32 114.432 12.224 114.229 12.032C114.037 11.8293 113.941 11.5947 113.941 11.328C113.941 11.0507 114.037 10.816 114.229 10.624C114.432 10.432 114.667 10.336 114.933 10.336C115.211 10.336 115.445 10.432 115.637 10.624C115.829 10.816 115.925 11.0507 115.925 11.328C115.925 11.5947 115.829 11.8293 115.637 12.032C115.445 12.224 115.211 12.32 114.933 12.32ZM119.389 22H117.885V14.176H119.245L119.405 15.376C119.65 14.928 120.002 14.5813 120.461 14.336C120.93 14.08 121.442 13.952 121.997 13.952C123.021 13.952 123.778 14.2453 124.269 14.832C124.76 15.4187 125.005 16.2133 125.005 17.216V22H123.501V17.552C123.501 16.7627 123.33 16.1973 122.989 15.856C122.648 15.504 122.189 15.328 121.613 15.328C120.909 15.328 120.36 15.5573 119.965 16.016C119.581 16.4747 119.389 17.088 119.389 17.856V22ZM133.287 10.432V22H131.719V10.432H133.287ZM137.233 22H135.729V14.176H137.089L137.249 15.376C137.494 14.928 137.846 14.5813 138.305 14.336C138.774 14.08 139.286 13.952 139.841 13.952C140.865 13.952 141.622 14.2453 142.113 14.832C142.603 15.4187 142.849 16.2133 142.849 17.216V22H141.345V17.552C141.345 16.7627 141.174 16.1973 140.833 15.856C140.491 15.504 140.033 15.328 139.457 15.328C138.753 15.328 138.203 15.5573 137.809 16.016C137.425 16.4747 137.233 17.088 137.233 17.856V22ZM148.068 22.192C147.31 22.192 146.66 22.0213 146.116 21.68C145.572 21.328 145.15 20.8427 144.852 20.224C144.564 19.6053 144.42 18.9013 144.42 18.112C144.42 17.312 144.569 16.6027 144.868 15.984C145.166 15.3547 145.593 14.8587 146.148 14.496C146.702 14.1333 147.364 13.952 148.132 13.952C148.74 13.952 149.278 14.08 149.748 14.336C150.228 14.5813 150.601 14.9493 150.868 15.44V10.224H152.356V22H151.012L150.884 20.576C150.628 21.0987 150.249 21.4987 149.748 21.776C149.257 22.0533 148.697 22.192 148.068 22.192ZM148.372 20.832C148.884 20.832 149.321 20.7147 149.684 20.48C150.057 20.2453 150.345 19.92 150.548 19.504C150.75 19.088 150.852 18.608 150.852 18.064C150.852 17.52 150.75 17.0453 150.548 16.64C150.345 16.224 150.057 15.8987 149.684 15.664C149.321 15.4293 148.884 15.312 148.372 15.312C147.86 15.312 147.422 15.4347 147.06 15.68C146.697 15.9147 146.42 16.24 146.228 16.656C146.036 17.0613 145.94 17.5307 145.94 18.064C145.94 18.608 146.036 19.088 146.228 19.504C146.42 19.92 146.697 20.2453 147.06 20.48C147.422 20.7147 147.86 20.832 148.372 20.832ZM154.526 22V14.176H156.03V22H154.526ZM155.262 12.32C154.995 12.32 154.76 12.224 154.558 12.032C154.366 11.8293 154.27 11.5947 154.27 11.328C154.27 11.0507 154.366 10.816 154.558 10.624C154.76 10.432 154.995 10.336 155.262 10.336C155.539 10.336 155.774 10.432 155.966 10.624C156.158 10.816 156.254 11.0507 156.254 11.328C156.254 11.5947 156.158 11.8293 155.966 12.032C155.774 12.224 155.539 12.32 155.262 12.32ZM160.501 22.192C159.669 22.192 159.013 21.9733 158.533 21.536C158.064 21.0987 157.829 20.528 157.829 19.824C157.829 19.1093 158.085 18.5387 158.597 18.112C159.109 17.6747 159.824 17.4187 160.741 17.344L163.205 17.152V16.928C163.205 16.4907 163.125 16.144 162.965 15.888C162.805 15.6213 162.586 15.4347 162.309 15.328C162.032 15.2107 161.717 15.152 161.365 15.152C160.736 15.152 160.245 15.2853 159.893 15.552C159.552 15.808 159.381 16.176 159.381 16.656H158.069C158.069 16.112 158.208 15.6373 158.485 15.232C158.762 14.8267 159.152 14.512 159.653 14.288C160.165 14.064 160.757 13.952 161.429 13.952C162.08 13.952 162.645 14.0693 163.125 14.304C163.616 14.528 163.994 14.8747 164.261 15.344C164.538 15.8027 164.677 16.384 164.677 17.088V22H163.397L163.237 20.736C163.034 21.184 162.682 21.5413 162.181 21.808C161.69 22.064 161.13 22.192 160.501 22.192ZM160.933 21.024C161.648 21.024 162.208 20.8107 162.613 20.384C163.018 19.9467 163.221 19.36 163.221 18.624V18.208L161.221 18.368C160.56 18.432 160.08 18.5867 159.781 18.832C159.493 19.0773 159.349 19.392 159.349 19.776C159.349 20.192 159.488 20.5067 159.765 20.72C160.053 20.9227 160.442 21.024 160.933 21.024Z" fill="#404040"/>
<g clip-path="url(#clip0_87_1095)">
<path d="M184.958 5.85278C185.738 6.4303 186.384 7.22623 187 8.2437C187.615 7.22622 188.261 6.4303 189.041 5.85278C190.03 5.1202 191.204 4.75391 192.755 4.75391C194.472 4.75391 196.031 5.40234 197.163 6.45017C198.304 7.50748 199.011 8.96894 199.011 10.5832C199.011 13.3788 197.527 16.1432 195.3 18.8917C193.124 21.5787 190.231 24.2576 187.338 26.9365L187 27.2494L186.662 26.9365C183.769 24.2576 180.875 21.5787 178.699 18.8917C176.473 16.1431 174.988 13.3788 174.988 10.5832C174.988 8.96892 175.695 7.50747 176.837 6.45017C177.968 5.40233 179.527 4.75392 181.244 4.75392C182.796 4.75392 183.969 5.1202 184.958 5.85278H184.958Z" fill="#EB5757"/>
</g>
<defs>
<clipPath id="clip0_87_1095">
<rect width="32" height="32" fill="white" transform="translate(171)"/>
</clipPath>
</defs>
</svg>
