<svg width="24" height="24" viewBox="0 0 24 24" fill="none" xmlns="http://www.w3.org/2000/svg">
<path d="M20.5 4H3.5C3.10218 4 2.72064 4.15804 2.43934 4.43934C2.15804 4.72064 2 5.10218 2 5.5V18.5C2 18.8978 2.15804 19.2794 2.43934 19.5607C2.72064 19.842 3.10218 20 3.5 20H20.5C20.8978 20 21.2794 19.842 21.5607 19.5607C21.842 19.2794 22 18.8978 22 18.5V5.5C22 5.10218 21.842 4.72064 21.5607 4.43934C21.2794 4.15804 20.8978 4 20.5 4ZM21 5.5V11.5H12.5V5H20.5C20.6326 5 20.7598 5.05268 20.8536 5.14645C20.9473 5.24022 21 5.36739 21 5.5ZM20.5 19H3.5C3.36739 19 3.24022 18.9473 3.14645 18.8536C3.05268 18.7598 3 18.6326 3 18.5V5.5C3 5.36739 3.05268 5.24022 3.14645 5.14645C3.24022 5.05268 3.36739 5 3.5 5H7V7C7 7.13261 7.05268 7.25979 7.14645 7.35355C7.24022 7.44732 7.36739 7.5 7.5 7.5C7.63261 7.5 7.75979 7.44732 7.85355 7.35355C7.94732 7.25979 8 7.13261 8 7V5H11.5V12C11.5 12.1326 11.5527 12.2598 11.6464 12.3536C11.7402 12.4473 11.8674 12.5 12 12.5H21V15H8V9C8 8.86739 7.94732 8.74021 7.85355 8.64645C7.75979 8.55268 7.63261 8.5 7.5 8.5C7.36739 8.5 7.24022 8.55268 7.14645 8.64645C7.05268 8.74021 7 8.86739 7 9V15.5C7 15.6326 7.05268 15.7598 7.14645 15.8536C7.24022 15.9473 7.36739 16 7.5 16H21V18.5C21 18.6326 20.9473 18.7598 20.8536 18.8536C20.7598 18.9473 20.6326 19 20.5 19Z" fill="#7F7F7F"/>
</svg>
