<svg width="624" height="151" viewBox="0 0 624 151" fill="none" xmlns="http://www.w3.org/2000/svg">
<path d="M49.7557 2.52C54.1557 2.52 58.0157 3.38 61.3357 5.1C64.6957 6.82 67.2757 9.28 69.0757 12.48C70.9157 15.64 71.8357 19.32 71.8357 23.52C71.8357 27.72 70.9157 31.4 69.0757 34.56C67.2757 37.68 64.6957 40.1 61.3357 41.82C58.0157 43.54 54.1557 44.4 49.7557 44.4H35.1157V2.52H49.7557ZM49.4557 37.26C53.8557 37.26 57.2557 36.06 59.6557 33.66C62.0557 31.26 63.2557 27.88 63.2557 23.52C63.2557 19.16 62.0557 15.76 59.6557 13.32C57.2557 10.84 53.8557 9.6 49.4557 9.6H43.5157V37.26H49.4557Z" fill="#111111"/>
<path d="M91.0835 44.94C87.8835 44.94 85.0035 44.24 82.4435 42.84C79.8835 41.4 77.8635 39.38 76.3835 36.78C74.9435 34.18 74.2235 31.18 74.2235 27.78C74.2235 24.38 74.9635 21.38 76.4435 18.78C77.9635 16.18 80.0235 14.18 82.6235 12.78C85.2235 11.34 88.1235 10.62 91.3235 10.62C94.5235 10.62 97.4235 11.34 100.023 12.78C102.623 14.18 104.663 16.18 106.144 18.78C107.663 21.38 108.424 24.38 108.424 27.78C108.424 31.18 107.644 34.18 106.084 36.78C104.564 39.38 102.483 41.4 99.8435 42.84C97.2435 44.24 94.3235 44.94 91.0835 44.94ZM91.0835 37.62C92.6035 37.62 94.0235 37.26 95.3435 36.54C96.7035 35.78 97.7835 34.66 98.5835 33.18C99.3835 31.7 99.7835 29.9 99.7835 27.78C99.7835 24.62 98.9435 22.2 97.2635 20.52C95.6235 18.8 93.6035 17.94 91.2035 17.94C88.8035 17.94 86.7835 18.8 85.1435 20.52C83.5435 22.2 82.7435 24.62 82.7435 27.78C82.7435 30.94 83.5235 33.38 85.0835 35.1C86.6835 36.78 88.6835 37.62 91.0835 37.62Z" fill="#111111"/>
<path d="M158.865 11.16L149.145 44.4H140.085L134.025 21.18L127.965 44.4H118.845L109.065 11.16H117.585L123.465 36.48L129.825 11.16H138.705L144.945 36.42L150.825 11.16H158.865Z" fill="#111111"/>
<path d="M180.03 10.68C183.99 10.68 187.19 11.94 189.63 14.46C192.07 16.94 193.29 20.42 193.29 24.9V44.4H184.89V26.04C184.89 23.4 184.23 21.38 182.91 19.98C181.59 18.54 179.79 17.82 177.51 17.82C175.19 17.82 173.35 18.54 171.99 19.98C170.67 21.38 170.01 23.4 170.01 26.04V44.4H161.61V11.16H170.01V15.3C171.13 13.86 172.55 12.74 174.27 11.94C176.03 11.1 177.95 10.68 180.03 10.68Z" fill="#111111"/>
<path d="M207.878 0V44.4H199.478V0H207.878Z" fill="#111111"/>
<path d="M229.137 44.94C225.937 44.94 223.057 44.24 220.497 42.84C217.937 41.4 215.917 39.38 214.437 36.78C212.997 34.18 212.277 31.18 212.277 27.78C212.277 24.38 213.017 21.38 214.497 18.78C216.017 16.18 218.077 14.18 220.677 12.78C223.277 11.34 226.177 10.62 229.377 10.62C232.577 10.62 235.477 11.34 238.077 12.78C240.677 14.18 242.717 16.18 244.197 18.78C245.717 21.38 246.477 24.38 246.477 27.78C246.477 31.18 245.697 34.18 244.137 36.78C242.617 39.38 240.537 41.4 237.897 42.84C235.297 44.24 232.377 44.94 229.137 44.94ZM229.137 37.62C230.657 37.62 232.077 37.26 233.397 36.54C234.757 35.78 235.837 34.66 236.637 33.18C237.437 31.7 237.837 29.9 237.837 27.78C237.837 24.62 236.997 22.2 235.317 20.52C233.677 18.8 231.657 17.94 229.257 17.94C226.857 17.94 224.837 18.8 223.197 20.52C221.597 22.2 220.797 24.62 220.797 27.78C220.797 30.94 221.577 33.38 223.137 35.1C224.737 36.78 226.737 37.62 229.137 37.62Z" fill="#111111"/>
<path d="M248.679 27.66C248.679 24.3 249.339 21.32 250.659 18.72C252.019 16.12 253.839 14.12 256.119 12.72C258.439 11.32 261.019 10.62 263.859 10.62C266.339 10.62 268.499 11.12 270.339 12.12C272.219 13.12 273.719 14.38 274.839 15.9V11.16H283.299V44.4H274.839V39.54C273.759 41.1 272.259 42.4 270.339 43.44C268.459 44.44 266.279 44.94 263.799 44.94C260.999 44.94 258.439 44.22 256.119 42.78C253.839 41.34 252.019 39.32 250.659 36.72C249.339 34.08 248.679 31.06 248.679 27.66ZM274.839 27.78C274.839 25.74 274.439 24 273.639 22.56C272.839 21.08 271.759 19.96 270.399 19.2C269.039 18.4 267.579 18 266.019 18C264.459 18 263.019 18.38 261.699 19.14C260.379 19.9 259.299 21.02 258.459 22.5C257.659 23.94 257.259 25.66 257.259 27.66C257.259 29.66 257.659 31.42 258.459 32.94C259.299 34.42 260.379 35.56 261.699 36.36C263.059 37.16 264.499 37.56 266.019 37.56C267.579 37.56 269.039 37.18 270.399 36.42C271.759 35.62 272.839 34.5 273.639 33.06C274.439 31.58 274.839 29.82 274.839 27.78Z" fill="#111111"/>
<path d="M287.543 27.66C287.543 24.3 288.203 21.32 289.523 18.72C290.883 16.12 292.723 14.12 295.043 12.72C297.363 11.32 299.943 10.62 302.783 10.62C304.943 10.62 307.003 11.1 308.963 12.06C310.923 12.98 312.483 14.22 313.643 15.78V0H322.163V44.4H313.643V39.48C312.603 41.12 311.143 42.44 309.263 43.44C307.383 44.44 305.203 44.94 302.723 44.94C299.923 44.94 297.363 44.22 295.043 42.78C292.723 41.34 290.883 39.32 289.523 36.72C288.203 34.08 287.543 31.06 287.543 27.66ZM313.703 27.78C313.703 25.74 313.303 24 312.503 22.56C311.703 21.08 310.623 19.96 309.263 19.2C307.903 18.4 306.443 18 304.883 18C303.323 18 301.883 18.38 300.563 19.14C299.243 19.9 298.163 21.02 297.323 22.5C296.523 23.94 296.123 25.66 296.123 27.66C296.123 29.66 296.523 31.42 297.323 32.94C298.163 34.42 299.243 35.56 300.563 36.36C301.923 37.16 303.363 37.56 304.883 37.56C306.443 37.56 307.903 37.18 309.263 36.42C310.623 35.62 311.703 34.5 312.503 33.06C313.303 31.58 313.703 29.82 313.703 27.78Z" fill="#111111"/>
<path d="M374.364 2.52L360.204 29.82V44.4H351.804V29.82L337.584 2.52H347.064L356.064 21.66L365.004 2.52H374.364Z" fill="#111111"/>
<path d="M392.169 44.94C388.969 44.94 386.089 44.24 383.529 42.84C380.969 41.4 378.949 39.38 377.469 36.78C376.029 34.18 375.309 31.18 375.309 27.78C375.309 24.38 376.049 21.38 377.529 18.78C379.049 16.18 381.109 14.18 383.709 12.78C386.309 11.34 389.209 10.62 392.409 10.62C395.609 10.62 398.509 11.34 401.109 12.78C403.709 14.18 405.749 16.18 407.229 18.78C408.749 21.38 409.509 24.38 409.509 27.78C409.509 31.18 408.729 34.18 407.169 36.78C405.649 39.38 403.569 41.4 400.929 42.84C398.329 44.24 395.409 44.94 392.169 44.94ZM392.169 37.62C393.689 37.62 395.109 37.26 396.429 36.54C397.789 35.78 398.869 34.66 399.669 33.18C400.469 31.7 400.869 29.9 400.869 27.78C400.869 24.62 400.029 22.2 398.349 20.52C396.709 18.8 394.689 17.94 392.289 17.94C389.889 17.94 387.869 18.8 386.229 20.52C384.629 22.2 383.829 24.62 383.829 27.78C383.829 30.94 384.609 33.38 386.169 35.1C387.769 36.78 389.769 37.62 392.169 37.62Z" fill="#111111"/>
<path d="M445.25 11.16V44.4H436.79V40.2C435.71 41.64 434.29 42.78 432.53 43.62C430.81 44.42 428.93 44.82 426.89 44.82C424.29 44.82 421.99 44.28 419.99 43.2C417.99 42.08 416.41 40.46 415.25 38.34C414.13 36.18 413.57 33.62 413.57 30.66V11.16H421.97V29.46C421.97 32.1 422.63 34.14 423.95 35.58C425.27 36.98 427.07 37.68 429.35 37.68C431.67 37.68 433.49 36.98 434.81 35.58C436.13 34.14 436.79 32.1 436.79 29.46V11.16H445.25Z" fill="#111111"/>
<path d="M480.238 2.52V9.3H469.078V44.4H460.678V9.3H449.518V2.52H480.238Z" fill="#111111"/>
<path d="M515.947 11.16V44.4H507.487V40.2C506.407 41.64 504.987 42.78 503.227 43.62C501.507 44.42 499.627 44.82 497.587 44.82C494.987 44.82 492.687 44.28 490.687 43.2C488.687 42.08 487.107 40.46 485.947 38.34C484.827 36.18 484.267 33.62 484.267 30.66V11.16H492.667V29.46C492.667 32.1 493.327 34.14 494.647 35.58C495.967 36.98 497.767 37.68 500.047 37.68C502.367 37.68 504.187 36.98 505.507 35.58C506.827 34.14 507.487 32.1 507.487 29.46V11.16H515.947Z" fill="#111111"/>
<path d="M530.835 16.02C531.915 14.42 533.395 13.12 535.275 12.12C537.195 11.12 539.375 10.62 541.815 10.62C544.655 10.62 547.215 11.32 549.495 12.72C551.815 14.12 553.635 16.12 554.955 18.72C556.315 21.28 556.995 24.26 556.995 27.66C556.995 31.06 556.315 34.08 554.955 36.72C553.635 39.32 551.815 41.34 549.495 42.78C547.215 44.22 544.655 44.94 541.815 44.94C539.335 44.94 537.155 44.46 535.275 43.5C533.435 42.5 531.955 41.22 530.835 39.66V44.4H522.435V0H530.835V16.02ZM548.415 27.66C548.415 25.66 547.995 23.94 547.155 22.5C546.355 21.02 545.275 19.9 543.915 19.14C542.595 18.38 541.155 18 539.595 18C538.075 18 536.635 18.4 535.275 19.2C533.955 19.96 532.875 21.08 532.035 22.56C531.235 24.04 530.835 25.78 530.835 27.78C530.835 29.78 531.235 31.52 532.035 33C532.875 34.48 533.955 35.62 535.275 36.42C536.635 37.18 538.075 37.56 539.595 37.56C541.155 37.56 542.595 37.16 543.915 36.36C545.275 35.56 546.355 34.42 547.155 32.94C547.995 31.46 548.415 29.7 548.415 27.66Z" fill="#111111"/>
<path d="M592.199 27.06C592.199 28.26 592.119 29.34 591.959 30.3H567.659C567.859 32.7 568.699 34.58 570.179 35.94C571.659 37.3 573.479 37.98 575.639 37.98C578.759 37.98 580.979 36.64 582.299 33.96H591.359C590.399 37.16 588.559 39.8 585.839 41.88C583.119 43.92 579.779 44.94 575.819 44.94C572.619 44.94 569.739 44.24 567.179 42.84C564.659 41.4 562.679 39.38 561.239 36.78C559.839 34.18 559.139 31.18 559.139 27.78C559.139 24.34 559.839 21.32 561.239 18.72C562.639 16.12 564.599 14.12 567.119 12.72C569.639 11.32 572.539 10.62 575.819 10.62C578.979 10.62 581.799 11.3 584.279 12.66C586.799 14.02 588.739 15.96 590.099 18.48C591.499 20.96 592.199 23.82 592.199 27.06ZM583.499 24.66C583.459 22.5 582.679 20.78 581.159 19.5C579.639 18.18 577.779 17.52 575.579 17.52C573.499 17.52 571.739 18.16 570.299 19.44C568.899 20.68 568.039 22.42 567.719 24.66H583.499Z" fill="#111111"/>
<path d="M30.72 92.52V99.3H19.56V134.4H11.16V99.3H0V92.52H30.72Z" fill="url(#paint0_linear_79_53342)"/>
<path d="M53.7689 100.68C56.2889 100.68 58.5289 101.24 60.4889 102.36C62.4489 103.44 63.9689 105.06 65.0489 107.22C66.1689 109.34 66.7289 111.9 66.7289 114.9V134.4H58.3289V116.04C58.3289 113.4 57.6689 111.38 56.3489 109.98C55.0289 108.54 53.2289 107.82 50.9489 107.82C48.6289 107.82 46.7889 108.54 45.4289 109.98C44.1089 111.38 43.4489 113.4 43.4489 116.04V134.4H35.0489V90H43.4489V105.3C44.5289 103.86 45.9689 102.74 47.7689 101.94C49.5689 101.1 51.5689 100.68 53.7689 100.68Z" fill="url(#paint1_linear_79_53342)"/>
<path d="M104.297 101.16V134.4H95.8369V130.2C94.7569 131.64 93.3369 132.78 91.5769 133.62C89.8569 134.42 87.9769 134.82 85.9369 134.82C83.3369 134.82 81.0369 134.28 79.0369 133.2C77.0369 132.08 75.4569 130.46 74.2969 128.34C73.1769 126.18 72.6169 123.62 72.6169 120.66V101.16H81.0169V119.46C81.0169 122.1 81.6769 124.14 82.9969 125.58C84.3169 126.98 86.1169 127.68 88.3969 127.68C90.7169 127.68 92.5369 126.98 93.8569 125.58C95.1769 124.14 95.8369 122.1 95.8369 119.46V101.16H104.297Z" fill="url(#paint2_linear_79_53342)"/>
<path d="M152.065 100.68C156.145 100.68 159.425 101.94 161.905 104.46C164.425 106.94 165.685 110.42 165.685 114.9V134.4H157.285V116.04C157.285 113.44 156.625 111.46 155.305 110.1C153.985 108.7 152.185 108 149.905 108C147.625 108 145.805 108.7 144.445 110.1C143.125 111.46 142.465 113.44 142.465 116.04V134.4H134.065V116.04C134.065 113.44 133.405 111.46 132.085 110.1C130.765 108.7 128.965 108 126.685 108C124.365 108 122.525 108.7 121.165 110.1C119.845 111.46 119.185 113.44 119.185 116.04V134.4H110.785V101.16H119.185V105.18C120.265 103.78 121.645 102.68 123.325 101.88C125.045 101.08 126.925 100.68 128.965 100.68C131.565 100.68 133.885 101.24 135.925 102.36C137.965 103.44 139.545 105 140.665 107.04C141.745 105.12 143.305 103.58 145.345 102.42C147.425 101.26 149.665 100.68 152.065 100.68Z" fill="url(#paint3_linear_79_53342)"/>
<path d="M180.256 106.02C181.336 104.42 182.816 103.12 184.696 102.12C186.616 101.12 188.796 100.62 191.236 100.62C194.076 100.62 196.636 101.32 198.916 102.72C201.236 104.12 203.056 106.12 204.376 108.72C205.736 111.28 206.416 114.26 206.416 117.66C206.416 121.06 205.736 124.08 204.376 126.72C203.056 129.32 201.236 131.34 198.916 132.78C196.636 134.22 194.076 134.94 191.236 134.94C188.756 134.94 186.576 134.46 184.696 133.5C182.856 132.5 181.376 131.22 180.256 129.66V134.4H171.856V90H180.256V106.02ZM197.836 117.66C197.836 115.66 197.416 113.94 196.576 112.5C195.776 111.02 194.696 109.9 193.336 109.14C192.016 108.38 190.576 108 189.016 108C187.496 108 186.056 108.4 184.696 109.2C183.376 109.96 182.296 111.08 181.456 112.56C180.656 114.04 180.256 115.78 180.256 117.78C180.256 119.78 180.656 121.52 181.456 123C182.296 124.48 183.376 125.62 184.696 126.42C186.056 127.18 187.496 127.56 189.016 127.56C190.576 127.56 192.016 127.16 193.336 126.36C194.696 125.56 195.776 124.42 196.576 122.94C197.416 121.46 197.836 119.7 197.836 117.66Z" fill="url(#paint4_linear_79_53342)"/>
<path d="M229.14 100.68C233.1 100.68 236.3 101.94 238.74 104.46C241.18 106.94 242.4 110.42 242.4 114.9V134.4H234V116.04C234 113.4 233.34 111.38 232.02 109.98C230.7 108.54 228.9 107.82 226.62 107.82C224.3 107.82 222.46 108.54 221.1 109.98C219.78 111.38 219.12 113.4 219.12 116.04V134.4H210.72V101.16H219.12V105.3C220.24 103.86 221.66 102.74 223.38 101.94C225.14 101.1 227.06 100.68 229.14 100.68Z" fill="url(#paint5_linear_79_53342)"/>
<path d="M246.428 117.66C246.428 114.3 247.088 111.32 248.408 108.72C249.768 106.12 251.588 104.12 253.868 102.72C256.188 101.32 258.768 100.62 261.608 100.62C264.088 100.62 266.248 101.12 268.088 102.12C269.968 103.12 271.468 104.38 272.588 105.9V101.16H281.048V134.4H272.588V129.54C271.508 131.1 270.008 132.4 268.088 133.44C266.208 134.44 264.028 134.94 261.548 134.94C258.748 134.94 256.188 134.22 253.868 132.78C251.588 131.34 249.768 129.32 248.408 126.72C247.088 124.08 246.428 121.06 246.428 117.66ZM272.588 117.78C272.588 115.74 272.188 114 271.388 112.56C270.588 111.08 269.508 109.96 268.148 109.2C266.788 108.4 265.328 108 263.768 108C262.208 108 260.768 108.38 259.448 109.14C258.128 109.9 257.048 111.02 256.208 112.5C255.408 113.94 255.008 115.66 255.008 117.66C255.008 119.66 255.408 121.42 256.208 122.94C257.048 124.42 258.128 125.56 259.448 126.36C260.808 127.16 262.248 127.56 263.768 127.56C265.328 127.56 266.788 127.18 268.148 126.42C269.508 125.62 270.588 124.5 271.388 123.06C272.188 121.58 272.588 119.82 272.588 117.78Z" fill="url(#paint6_linear_79_53342)"/>
<path d="M291.712 97.2C290.232 97.2 288.992 96.74 287.992 95.82C287.032 94.86 286.552 93.68 286.552 92.28C286.552 90.88 287.032 89.72 287.992 88.8C288.992 87.84 290.232 87.36 291.712 87.36C293.192 87.36 294.412 87.84 295.372 88.8C296.372 89.72 296.872 90.88 296.872 92.28C296.872 93.68 296.372 94.86 295.372 95.82C294.412 96.74 293.192 97.2 291.712 97.2ZM295.852 101.16V134.4H287.452V101.16H295.852Z" fill="url(#paint7_linear_79_53342)"/>
<path d="M310.751 90V134.4H302.351V90H310.751Z" fill="url(#paint8_linear_79_53342)"/>
<path d="M329.97 134.94C327.25 134.94 324.81 134.46 322.65 133.5C320.49 132.5 318.77 131.16 317.49 129.48C316.25 127.8 315.57 125.94 315.45 123.9H323.91C324.07 125.18 324.69 126.24 325.77 127.08C326.89 127.92 328.27 128.34 329.91 128.34C331.51 128.34 332.75 128.02 333.63 127.38C334.55 126.74 335.01 125.92 335.01 124.92C335.01 123.84 334.45 123.04 333.33 122.52C332.25 121.96 330.51 121.36 328.11 120.72C325.63 120.12 323.59 119.5 321.99 118.86C320.43 118.22 319.07 117.24 317.91 115.92C316.79 114.6 316.23 112.82 316.23 110.58C316.23 108.74 316.75 107.06 317.79 105.54C318.87 104.02 320.39 102.82 322.35 101.94C324.35 101.06 326.69 100.62 329.37 100.62C333.33 100.62 336.49 101.62 338.85 103.62C341.21 105.58 342.51 108.24 342.75 111.6H334.71C334.59 110.28 334.03 109.24 333.03 108.48C332.07 107.68 330.77 107.28 329.13 107.28C327.61 107.28 326.43 107.56 325.59 108.12C324.79 108.68 324.39 109.46 324.39 110.46C324.39 111.58 324.95 112.44 326.07 113.04C327.19 113.6 328.93 114.18 331.29 114.78C333.69 115.38 335.67 116 337.23 116.64C338.79 117.28 340.13 118.28 341.25 119.64C342.41 120.96 343.01 122.72 343.05 124.92C343.05 126.84 342.51 128.56 341.43 130.08C340.39 131.6 338.87 132.8 336.87 133.68C334.91 134.52 332.61 134.94 329.97 134.94Z" fill="url(#paint9_linear_79_53342)"/>
<path d="M364.903 97.2C363.423 97.2 362.183 96.74 361.183 95.82C360.223 94.86 359.743 93.68 359.743 92.28C359.743 90.88 360.223 89.72 361.183 88.8C362.183 87.84 363.423 87.36 364.903 87.36C366.383 87.36 367.603 87.84 368.563 88.8C369.563 89.72 370.063 90.88 370.063 92.28C370.063 93.68 369.563 94.86 368.563 95.82C367.603 96.74 366.383 97.2 364.903 97.2ZM369.043 101.16V134.4H360.643V101.16H369.043Z" fill="url(#paint10_linear_79_53342)"/>
<path d="M393.962 100.68C397.922 100.68 401.122 101.94 403.562 104.46C406.002 106.94 407.222 110.42 407.222 114.9V134.4H398.822V116.04C398.822 113.4 398.162 111.38 396.842 109.98C395.522 108.54 393.722 107.82 391.442 107.82C389.122 107.82 387.282 108.54 385.922 109.98C384.602 111.38 383.942 113.4 383.942 116.04V134.4H375.542V101.16H383.942V105.3C385.062 103.86 386.482 102.74 388.202 101.94C389.962 101.1 391.882 100.68 393.962 100.68Z" fill="url(#paint11_linear_79_53342)"/>
<path d="M423.747 117.66C423.747 114.3 424.407 111.32 425.727 108.72C427.087 106.12 428.907 104.12 431.187 102.72C433.507 101.32 436.087 100.62 438.927 100.62C441.407 100.62 443.567 101.12 445.407 102.12C447.287 103.12 448.787 104.38 449.907 105.9V101.16H458.367V134.4H449.907V129.54C448.827 131.1 447.327 132.4 445.407 133.44C443.527 134.44 441.347 134.94 438.867 134.94C436.067 134.94 433.507 134.22 431.187 132.78C428.907 131.34 427.087 129.32 425.727 126.72C424.407 124.08 423.747 121.06 423.747 117.66ZM449.907 117.78C449.907 115.74 449.507 114 448.707 112.56C447.907 111.08 446.827 109.96 445.467 109.2C444.107 108.4 442.647 108 441.087 108C439.527 108 438.087 108.38 436.767 109.14C435.447 109.9 434.367 111.02 433.527 112.5C432.727 113.94 432.327 115.66 432.327 117.66C432.327 119.66 432.727 121.42 433.527 122.94C434.367 124.42 435.447 125.56 436.767 126.36C438.127 127.16 439.567 127.56 441.087 127.56C442.647 127.56 444.107 127.18 445.467 126.42C446.827 125.62 447.907 124.5 448.707 123.06C449.507 121.58 449.907 119.82 449.907 117.78Z" fill="url(#paint12_linear_79_53342)"/>
<path d="M491.728 134.82C488.808 134.82 486.168 134.32 483.808 133.32C481.488 132.32 479.648 130.88 478.288 129C476.928 127.12 476.228 124.9 476.188 122.34H485.188C485.308 124.06 485.908 125.42 486.988 126.42C488.108 127.42 489.628 127.92 491.548 127.92C493.508 127.92 495.048 127.46 496.168 126.54C497.288 125.58 497.848 124.34 497.848 122.82C497.848 121.58 497.468 120.56 496.708 119.76C495.948 118.96 494.988 118.34 493.828 117.9C492.708 117.42 491.148 116.9 489.148 116.34C486.428 115.54 484.208 114.76 482.488 114C480.808 113.2 479.348 112.02 478.108 110.46C476.908 108.86 476.308 106.74 476.308 104.1C476.308 101.62 476.928 99.46 478.168 97.62C479.408 95.78 481.148 94.38 483.388 93.42C485.628 92.42 488.188 91.92 491.068 91.92C495.388 91.92 498.888 92.98 501.568 95.1C504.288 97.18 505.788 100.1 506.068 103.86H496.828C496.748 102.42 496.128 101.24 494.968 100.32C493.848 99.36 492.348 98.88 490.468 98.88C488.828 98.88 487.508 99.3 486.508 100.14C485.548 100.98 485.068 102.2 485.068 103.8C485.068 104.92 485.428 105.86 486.148 106.62C486.908 107.34 487.828 107.94 488.908 108.42C490.028 108.86 491.588 109.38 493.588 109.98C496.308 110.78 498.528 111.58 500.248 112.38C501.968 113.18 503.448 114.38 504.688 115.98C505.928 117.58 506.548 119.68 506.548 122.28C506.548 124.52 505.968 126.6 504.808 128.52C503.648 130.44 501.948 131.98 499.708 133.14C497.468 134.26 494.808 134.82 491.728 134.82Z" fill="url(#paint13_linear_79_53342)"/>
<path d="M530.45 100.68C534.41 100.68 537.61 101.94 540.05 104.46C542.49 106.94 543.71 110.42 543.71 114.9V134.4H535.31V116.04C535.31 113.4 534.65 111.38 533.33 109.98C532.01 108.54 530.21 107.82 527.93 107.82C525.61 107.82 523.77 108.54 522.41 109.98C521.09 111.38 520.43 113.4 520.43 116.04V134.4H512.03V101.16H520.43V105.3C521.55 103.86 522.97 102.74 524.69 101.94C526.45 101.1 528.37 100.68 530.45 100.68Z" fill="url(#paint14_linear_79_53342)"/>
<path d="M547.738 117.66C547.738 114.3 548.398 111.32 549.718 108.72C551.078 106.12 552.898 104.12 555.178 102.72C557.498 101.32 560.078 100.62 562.918 100.62C565.398 100.62 567.558 101.12 569.398 102.12C571.278 103.12 572.778 104.38 573.898 105.9V101.16H582.358V134.4H573.898V129.54C572.818 131.1 571.318 132.4 569.398 133.44C567.518 134.44 565.338 134.94 562.858 134.94C560.058 134.94 557.498 134.22 555.178 132.78C552.898 131.34 551.078 129.32 549.718 126.72C548.398 124.08 547.738 121.06 547.738 117.66ZM573.898 117.78C573.898 115.74 573.498 114 572.698 112.56C571.898 111.08 570.818 109.96 569.458 109.2C568.098 108.4 566.638 108 565.078 108C563.518 108 562.078 108.38 560.758 109.14C559.438 109.9 558.358 111.02 557.518 112.5C556.718 113.94 556.318 115.66 556.318 117.66C556.318 119.66 556.718 121.42 557.518 122.94C558.358 124.42 559.438 125.56 560.758 126.36C562.118 127.16 563.558 127.56 565.078 127.56C566.638 127.56 568.098 127.18 569.458 126.42C570.818 125.62 571.898 124.5 572.698 123.06C573.498 121.58 573.898 119.82 573.898 117.78Z" fill="url(#paint15_linear_79_53342)"/>
<path d="M597.162 105.96C598.242 104.44 599.722 103.18 601.602 102.18C603.522 101.14 605.702 100.62 608.142 100.62C610.982 100.62 613.542 101.32 615.822 102.72C618.142 104.12 619.962 106.12 621.282 108.72C622.642 111.28 623.322 114.26 623.322 117.66C623.322 121.06 622.642 124.08 621.282 126.72C619.962 129.32 618.142 131.34 615.822 132.78C613.542 134.22 610.982 134.94 608.142 134.94C605.702 134.94 603.542 134.44 601.662 133.44C599.822 132.44 598.322 131.18 597.162 129.66V150.24H588.762V101.16H597.162V105.96ZM614.742 117.66C614.742 115.66 614.322 113.94 613.482 112.5C612.682 111.02 611.602 109.9 610.242 109.14C608.922 108.38 607.482 108 605.922 108C604.402 108 602.962 108.4 601.602 109.2C600.282 109.96 599.202 111.08 598.362 112.56C597.562 114.04 597.162 115.78 597.162 117.78C597.162 119.78 597.562 121.52 598.362 123C599.202 124.48 600.282 125.62 601.602 126.42C602.962 127.18 604.402 127.56 605.922 127.56C607.482 127.56 608.922 127.16 610.242 126.36C611.602 125.56 612.682 124.42 613.482 122.94C614.322 121.46 614.742 119.7 614.742 117.66Z" fill="url(#paint16_linear_79_53342)"/>
<defs>
<linearGradient id="paint0_linear_79_53342" x1="-3.64321e-06" y1="92.022" x2="622.747" y2="138.002" gradientUnits="userSpaceOnUse">
<stop stop-color="#FF8C4C"/>
<stop offset="0.305764" stop-color="#FF3897"/>
<stop offset="0.63694" stop-color="#55B7FF"/>
<stop offset="1" stop-color="#8F00FF"/>
</linearGradient>
<linearGradient id="paint1_linear_79_53342" x1="-3.64321e-06" y1="92.022" x2="622.747" y2="138.002" gradientUnits="userSpaceOnUse">
<stop stop-color="#FF8C4C"/>
<stop offset="0.305764" stop-color="#FF3897"/>
<stop offset="0.63694" stop-color="#55B7FF"/>
<stop offset="1" stop-color="#8F00FF"/>
</linearGradient>
<linearGradient id="paint2_linear_79_53342" x1="-3.64321e-06" y1="92.022" x2="622.747" y2="138.002" gradientUnits="userSpaceOnUse">
<stop stop-color="#FF8C4C"/>
<stop offset="0.305764" stop-color="#FF3897"/>
<stop offset="0.63694" stop-color="#55B7FF"/>
<stop offset="1" stop-color="#8F00FF"/>
</linearGradient>
<linearGradient id="paint3_linear_79_53342" x1="-3.64321e-06" y1="92.022" x2="622.747" y2="138.002" gradientUnits="userSpaceOnUse">
<stop stop-color="#FF8C4C"/>
<stop offset="0.305764" stop-color="#FF3897"/>
<stop offset="0.63694" stop-color="#55B7FF"/>
<stop offset="1" stop-color="#8F00FF"/>
</linearGradient>
<linearGradient id="paint4_linear_79_53342" x1="-3.64321e-06" y1="92.022" x2="622.747" y2="138.002" gradientUnits="userSpaceOnUse">
<stop stop-color="#FF8C4C"/>
<stop offset="0.305764" stop-color="#FF3897"/>
<stop offset="0.63694" stop-color="#55B7FF"/>
<stop offset="1" stop-color="#8F00FF"/>
</linearGradient>
<linearGradient id="paint5_linear_79_53342" x1="-3.64321e-06" y1="92.022" x2="622.747" y2="138.002" gradientUnits="userSpaceOnUse">
<stop stop-color="#FF8C4C"/>
<stop offset="0.305764" stop-color="#FF3897"/>
<stop offset="0.63694" stop-color="#55B7FF"/>
<stop offset="1" stop-color="#8F00FF"/>
</linearGradient>
<linearGradient id="paint6_linear_79_53342" x1="-3.64321e-06" y1="92.022" x2="622.747" y2="138.002" gradientUnits="userSpaceOnUse">
<stop stop-color="#FF8C4C"/>
<stop offset="0.305764" stop-color="#FF3897"/>
<stop offset="0.63694" stop-color="#55B7FF"/>
<stop offset="1" stop-color="#8F00FF"/>
</linearGradient>
<linearGradient id="paint7_linear_79_53342" x1="-3.64321e-06" y1="92.022" x2="622.747" y2="138.002" gradientUnits="userSpaceOnUse">
<stop stop-color="#FF8C4C"/>
<stop offset="0.305764" stop-color="#FF3897"/>
<stop offset="0.63694" stop-color="#55B7FF"/>
<stop offset="1" stop-color="#8F00FF"/>
</linearGradient>
<linearGradient id="paint8_linear_79_53342" x1="-3.64321e-06" y1="92.022" x2="622.747" y2="138.002" gradientUnits="userSpaceOnUse">
<stop stop-color="#FF8C4C"/>
<stop offset="0.305764" stop-color="#FF3897"/>
<stop offset="0.63694" stop-color="#55B7FF"/>
<stop offset="1" stop-color="#8F00FF"/>
</linearGradient>
<linearGradient id="paint9_linear_79_53342" x1="-3.64321e-06" y1="92.022" x2="622.747" y2="138.002" gradientUnits="userSpaceOnUse">
<stop stop-color="#FF8C4C"/>
<stop offset="0.305764" stop-color="#FF3897"/>
<stop offset="0.63694" stop-color="#55B7FF"/>
<stop offset="1" stop-color="#8F00FF"/>
</linearGradient>
<linearGradient id="paint10_linear_79_53342" x1="-3.64321e-06" y1="92.022" x2="622.747" y2="138.002" gradientUnits="userSpaceOnUse">
<stop stop-color="#FF8C4C"/>
<stop offset="0.305764" stop-color="#FF3897"/>
<stop offset="0.63694" stop-color="#55B7FF"/>
<stop offset="1" stop-color="#8F00FF"/>
</linearGradient>
<linearGradient id="paint11_linear_79_53342" x1="-3.64321e-06" y1="92.022" x2="622.747" y2="138.002" gradientUnits="userSpaceOnUse">
<stop stop-color="#FF8C4C"/>
<stop offset="0.305764" stop-color="#FF3897"/>
<stop offset="0.63694" stop-color="#55B7FF"/>
<stop offset="1" stop-color="#8F00FF"/>
</linearGradient>
<linearGradient id="paint12_linear_79_53342" x1="-3.64321e-06" y1="92.022" x2="622.747" y2="138.002" gradientUnits="userSpaceOnUse">
<stop stop-color="#FF8C4C"/>
<stop offset="0.305764" stop-color="#FF3897"/>
<stop offset="0.63694" stop-color="#55B7FF"/>
<stop offset="1" stop-color="#8F00FF"/>
</linearGradient>
<linearGradient id="paint13_linear_79_53342" x1="-3.64321e-06" y1="92.022" x2="622.747" y2="138.002" gradientUnits="userSpaceOnUse">
<stop stop-color="#FF8C4C"/>
<stop offset="0.305764" stop-color="#FF3897"/>
<stop offset="0.63694" stop-color="#55B7FF"/>
<stop offset="1" stop-color="#8F00FF"/>
</linearGradient>
<linearGradient id="paint14_linear_79_53342" x1="-3.64321e-06" y1="92.022" x2="622.747" y2="138.002" gradientUnits="userSpaceOnUse">
<stop stop-color="#FF8C4C"/>
<stop offset="0.305764" stop-color="#FF3897"/>
<stop offset="0.63694" stop-color="#55B7FF"/>
<stop offset="1" stop-color="#8F00FF"/>
</linearGradient>
<linearGradient id="paint15_linear_79_53342" x1="-3.64321e-06" y1="92.022" x2="622.747" y2="138.002" gradientUnits="userSpaceOnUse">
<stop stop-color="#FF8C4C"/>
<stop offset="0.305764" stop-color="#FF3897"/>
<stop offset="0.63694" stop-color="#55B7FF"/>
<stop offset="1" stop-color="#8F00FF"/>
</linearGradient>
<linearGradient id="paint16_linear_79_53342" x1="-3.64321e-06" y1="92.022" x2="622.747" y2="138.002" gradientUnits="userSpaceOnUse">
<stop stop-color="#FF8C4C"/>
<stop offset="0.305764" stop-color="#FF3897"/>
<stop offset="0.63694" stop-color="#55B7FF"/>
<stop offset="1" stop-color="#8F00FF"/>
</linearGradient>
</defs>
</svg>
