<svg width="24" height="24" viewBox="0 0 24 24" fill="none" xmlns="http://www.w3.org/2000/svg">
<g clip-path="url(#clip0_87_517)">
<path d="M22.7188 8.43775C21.4344 7.01743 19.0896 6.52337 17.3799 7.31275C15.5756 8.14675 14.0541 9.55337 13.3078 10.3174C13.2384 10.3887 13.2 10.4845 13.2011 10.584C13.2023 10.6835 13.2429 10.7785 13.314 10.8481C13.3492 10.8825 13.3908 10.9097 13.4366 10.928C13.4823 10.9463 13.5311 10.9555 13.5804 10.9549C13.6296 10.9544 13.6783 10.9441 13.7235 10.9248C13.7688 10.9054 13.8098 10.8773 13.8443 10.8421C15.0527 9.60456 16.4561 8.56637 17.6946 7.99431C19.1229 7.33431 21.0859 7.75056 22.1627 8.94137C23.1326 10.0139 23.5029 11.7666 23.0633 13.2038C22.452 15.202 20.0822 16.5263 17.7804 16.1567C15.2867 15.7555 13.7929 13.8244 12.2117 11.7801C11.2455 10.5302 10.2458 9.23781 8.99907 8.341C7.51725 7.27487 5.67394 6.80068 4.06669 7.07312C2.75925 7.29456 1.66482 7.98625 0.902066 9.07356C-0.120746 10.5312 -0.284246 12.3792 0.465191 14.017C1.23282 15.6955 2.82825 16.8505 4.62882 17.0316C4.83788 17.0526 5.04132 17.0626 5.24063 17.0626C7.77825 17.0626 9.552 15.43 10.8334 13.9666C10.899 13.8917 10.9321 13.7939 10.9256 13.6946C10.9191 13.5953 10.8735 13.5027 10.7987 13.4371C10.7617 13.4045 10.7186 13.3796 10.6719 13.3638C10.6253 13.3479 10.576 13.3414 10.5268 13.3447C10.4776 13.3479 10.4296 13.3608 10.3854 13.3827C10.3412 13.4045 10.3018 13.4348 10.2694 13.4719C8.36738 15.6443 6.705 16.4866 4.704 16.2848C3.16725 16.1303 1.80432 15.1416 1.14713 13.7048C0.510004 12.3121 0.647816 10.7419 1.51594 9.50481C2.16094 8.5855 3.08625 8.0005 4.19194 7.813C5.60457 7.57375 7.23882 7.99881 8.56144 8.95056C9.71944 9.78362 10.6421 10.9765 11.6188 12.2393C13.2195 14.3093 14.8748 16.4494 17.6614 16.8977C20.3638 17.3318 23.0513 15.8063 23.7803 13.4234C24.3015 11.7199 23.8749 9.71631 22.7188 8.43775Z" fill="#FF3897"/>
</g>
<defs>
<clipPath id="clip0_87_517">
<rect width="24" height="24" fill="white"/>
</clipPath>
</defs>
</svg>
